<svg width="32" height="33" viewBox="0 0 32 33" fill="none" xmlns="http://www.w3.org/2000/svg">
<rect y="0.5" width="32" height="32" rx="4" fill="#737373"/>
<path d="M16 18.7727C17.2552 18.7727 18.2727 17.7552 18.2727 16.5C18.2727 15.2448 17.2552 14.2273 16 14.2273C14.7448 14.2273 13.7273 15.2448 13.7273 16.5C13.7273 17.7552 14.7448 18.7727 16 18.7727Z" stroke="white" stroke-width="2" stroke-linecap="round" stroke-linejoin="round"/>
<path d="M21.6061 18.7727C21.5052 19.0012 21.4751 19.2547 21.5197 19.5005C21.5642 19.7462 21.6814 19.973 21.8561 20.1515L21.9015 20.197C22.0424 20.3377 22.1541 20.5048 22.2304 20.6887C22.3066 20.8727 22.3459 21.0698 22.3459 21.269C22.3459 21.4681 22.3066 21.6652 22.2304 21.8492C22.1541 22.0331 22.0424 22.2002 21.9015 22.3409C21.7608 22.4818 21.5937 22.5936 21.4097 22.6698C21.2258 22.7461 21.0287 22.7853 20.8295 22.7853C20.6304 22.7853 20.4333 22.7461 20.2493 22.6698C20.0654 22.5936 19.8983 22.4818 19.7576 22.3409L19.7121 22.2955C19.5336 22.1208 19.3068 22.0037 19.061 21.9591C18.8153 21.9145 18.5618 21.9446 18.3333 22.0455C18.1093 22.1415 17.9182 22.301 17.7836 22.5042C17.649 22.7075 17.5767 22.9456 17.5757 23.1894V23.3182C17.5757 23.72 17.4161 24.1054 17.132 24.3896C16.8478 24.6737 16.4624 24.8334 16.0606 24.8334C15.6588 24.8334 15.2734 24.6737 14.9892 24.3896C14.7051 24.1054 14.5454 23.72 14.5454 23.3182V23.25C14.5396 22.9993 14.4584 22.7561 14.3125 22.5521C14.1666 22.3481 13.9627 22.1927 13.7273 22.1061C13.4988 22.0052 13.2453 21.9752 12.9995 22.0197C12.7538 22.0643 12.527 22.1814 12.3485 22.3561L12.303 22.4015C12.1623 22.5424 11.9952 22.6542 11.8113 22.7304C11.6273 22.8067 11.4302 22.8459 11.2311 22.8459C11.0319 22.8459 10.8348 22.8067 10.6508 22.7304C10.4669 22.6542 10.2998 22.5424 10.1591 22.4015C10.0182 22.2608 9.90645 22.0937 9.8302 21.9098C9.75395 21.7258 9.71471 21.5287 9.71471 21.3296C9.71471 21.1305 9.75395 20.9333 9.8302 20.7494C9.90645 20.5654 10.0182 20.3983 10.1591 20.2576L10.2045 20.2121C10.3792 20.0336 10.4963 19.8068 10.5409 19.5611C10.5855 19.3153 10.5554 19.0619 10.4545 18.8334C10.3585 18.6093 10.199 18.4182 9.9958 18.2836C9.79255 18.149 9.55437 18.0768 9.3106 18.0758H9.18181C8.77996 18.0758 8.39458 17.9161 8.11043 17.632C7.82629 17.3479 7.66666 16.9625 7.66666 16.5606C7.66666 16.1588 7.82629 15.7734 8.11043 15.4893C8.39458 15.2051 8.77996 15.0455 9.18181 15.0455H9.24999C9.50074 15.0396 9.74393 14.9584 9.94794 14.8125C10.152 14.6666 10.3074 14.4627 10.3939 14.2273C10.4948 13.9988 10.5249 13.7453 10.4803 13.4996C10.4357 13.2538 10.3186 13.0271 10.1439 12.8485L10.0985 12.8031C9.9576 12.6623 9.84585 12.4952 9.7696 12.3113C9.69335 12.1274 9.6541 11.9302 9.6541 11.7311C9.6541 11.532 9.69335 11.3348 9.7696 11.1509C9.84585 10.9669 9.9576 10.7998 10.0985 10.6591C10.2392 10.5182 10.4063 10.4065 10.5902 10.3302C10.7742 10.254 10.9713 10.2147 11.1704 10.2147C11.3696 10.2147 11.5667 10.254 11.7507 10.3302C11.9346 10.4065 12.1017 10.5182 12.2424 10.6591L12.2879 10.7046C12.4664 10.8792 12.6932 10.9964 12.9389 11.0409C13.1847 11.0855 13.4382 11.0554 13.6667 10.9546H13.7273C13.9513 10.8585 14.1424 10.6991 14.277 10.4958C14.4116 10.2926 14.4839 10.0544 14.4848 9.81063V9.68184C14.4848 9.28 14.6445 8.89461 14.9286 8.61046C15.2128 8.32632 15.5981 8.16669 16 8.16669C16.4018 8.16669 16.7872 8.32632 17.0714 8.61046C17.3555 8.89461 17.5151 9.28 17.5151 9.68184V9.75002C17.5161 9.9938 17.5883 10.232 17.723 10.4352C17.8576 10.6385 18.0487 10.7979 18.2727 10.894C18.5012 10.9948 18.7547 11.0249 19.0004 10.9803C19.2462 10.9358 19.473 10.8186 19.6515 10.644L19.697 10.5985C19.8377 10.4576 20.0048 10.3459 20.1887 10.2696C20.3727 10.1934 20.5698 10.1541 20.7689 10.1541C20.968 10.1541 21.1652 10.1934 21.3491 10.2696C21.5331 10.3459 21.7002 10.4576 21.8409 10.5985C21.9818 10.7392 22.0935 10.9063 22.1698 11.0903C22.246 11.2742 22.2853 11.4714 22.2853 11.6705C22.2853 11.8696 22.246 12.0668 22.1698 12.2507C22.0935 12.4346 21.9818 12.6017 21.8409 12.7424L21.7954 12.7879C21.6208 12.9664 21.5036 13.1932 21.4591 13.439C21.4145 13.6847 21.4446 13.9382 21.5454 14.1667V14.2273C21.6415 14.4514 21.8009 14.6425 22.0042 14.7771C22.2074 14.9117 22.4456 14.9839 22.6894 14.9849H22.8182C23.22 14.9849 23.6054 15.1445 23.8895 15.4286C24.1737 15.7128 24.3333 16.0982 24.3333 16.5C24.3333 16.9019 24.1737 17.2872 23.8895 17.5714C23.6054 17.8555 23.22 18.0152 22.8182 18.0152H22.75C22.5062 18.0161 22.268 18.0884 22.0648 18.223C21.8615 18.3576 21.7021 18.5487 21.6061 18.7727Z" stroke="white" stroke-width="2" stroke-linecap="round" stroke-linejoin="round"/>
</svg>
