<svg width="152" height="32" viewBox="0 0 152 32" fill="none" xmlns="http://www.w3.org/2000/svg">
<rect width="32" height="32" rx="16" fill="#898E9D"/>
<path d="M6.94 20V13H8.01L11.07 18.11H10.51L13.52 13H14.59L14.6 20H13.37L13.36 14.93H13.62L11.06 19.2H10.48L7.88 14.93H8.18V20H6.94ZM16.8908 20V13H17.9608L21.0208 18.11H20.4608L23.4708 13H24.5408L24.5508 20H23.3208L23.3108 14.93H23.5708L21.0108 19.2H20.4308L17.8308 14.93H18.1308V20H16.8908Z" fill="white"/>
<path d="M44.326 21.612C43.5793 21.612 42.8653 21.5 42.184 21.276C41.5027 21.0427 40.966 20.744 40.574 20.38L41.092 19.288C41.4653 19.6147 41.9413 19.8853 42.52 20.1C43.0987 20.3147 43.7007 20.422 44.326 20.422C44.8953 20.422 45.3573 20.3567 45.712 20.226C46.0667 20.0953 46.328 19.918 46.496 19.694C46.664 19.4607 46.748 19.1993 46.748 18.91C46.748 18.574 46.636 18.3033 46.412 18.098C46.1973 17.8927 45.9127 17.7293 45.558 17.608C45.2127 17.4773 44.83 17.3653 44.41 17.272C43.99 17.1787 43.5653 17.0713 43.136 16.95C42.716 16.8193 42.3287 16.656 41.974 16.46C41.6287 16.264 41.3487 16.0027 41.134 15.676C40.9193 15.34 40.812 14.9107 40.812 14.388C40.812 13.884 40.9427 13.422 41.204 13.002C41.4747 12.5727 41.8853 12.232 42.436 11.98C42.996 11.7187 43.7053 11.588 44.564 11.588C45.1333 11.588 45.698 11.6627 46.258 11.812C46.818 11.9613 47.3033 12.176 47.714 12.456L47.252 13.576C46.832 13.296 46.3887 13.0953 45.922 12.974C45.4553 12.8433 45.0027 12.778 44.564 12.778C44.0133 12.778 43.5607 12.848 43.206 12.988C42.8513 13.128 42.59 13.3147 42.422 13.548C42.2633 13.7813 42.184 14.0427 42.184 14.332C42.184 14.6773 42.2913 14.9527 42.506 15.158C42.73 15.3633 43.0147 15.5267 43.36 15.648C43.7147 15.7693 44.102 15.8813 44.522 15.984C44.942 16.0773 45.362 16.1847 45.782 16.306C46.2113 16.4273 46.5987 16.586 46.944 16.782C47.2987 16.978 47.5833 17.2393 47.798 17.566C48.0127 17.8927 48.12 18.3127 48.12 18.826C48.12 19.3207 47.9847 19.7827 47.714 20.212C47.4433 20.632 47.0233 20.9727 46.454 21.234C45.894 21.486 45.1847 21.612 44.326 21.612ZM52.5173 21.584C51.7706 21.584 51.192 21.3833 50.7813 20.982C50.3706 20.5807 50.1653 20.0067 50.1653 19.26V12.456H51.5093V19.204C51.5093 19.6053 51.6073 19.9133 51.8033 20.128C52.0086 20.3427 52.298 20.45 52.6713 20.45C53.0913 20.45 53.4413 20.3333 53.7213 20.1L54.1413 21.066C53.936 21.2433 53.6886 21.374 53.3993 21.458C53.1193 21.542 52.8253 21.584 52.5173 21.584ZM48.9053 15.186V14.08H53.6373V15.186H48.9053ZM58.8241 21.584C58.0308 21.584 57.3308 21.4207 56.7241 21.094C56.1268 20.7673 55.6601 20.3193 55.3241 19.75C54.9974 19.1807 54.8341 18.5273 54.8341 17.79C54.8341 17.0527 54.9928 16.3993 55.3101 15.83C55.6368 15.2607 56.0801 14.8173 56.6401 14.5C57.2094 14.1733 57.8488 14.01 58.5581 14.01C59.2768 14.01 59.9114 14.1687 60.4621 14.486C61.0128 14.8033 61.4421 15.2513 61.7501 15.83C62.0674 16.3993 62.2261 17.0667 62.2261 17.832C62.2261 17.888 62.2214 17.9533 62.2121 18.028C62.2121 18.1027 62.2074 18.1727 62.1981 18.238H55.8841V17.272H61.4981L60.9521 17.608C60.9614 17.132 60.8634 16.7073 60.6581 16.334C60.4528 15.9607 60.1681 15.6713 59.8041 15.466C59.4494 15.2513 59.0341 15.144 58.5581 15.144C58.0914 15.144 57.6761 15.2513 57.3121 15.466C56.9481 15.6713 56.6634 15.9653 56.4581 16.348C56.2528 16.7213 56.1501 17.1507 56.1501 17.636V17.86C56.1501 18.3547 56.2621 18.798 56.4861 19.19C56.7194 19.5727 57.0414 19.8713 57.4521 20.086C57.8628 20.3007 58.3341 20.408 58.8661 20.408C59.3048 20.408 59.7014 20.3333 60.0561 20.184C60.4201 20.0347 60.7374 19.8107 61.0081 19.512L61.7501 20.38C61.4141 20.772 60.9941 21.0707 60.4901 21.276C59.9954 21.4813 59.4401 21.584 58.8241 21.584ZM64.2884 21.5V13.422C64.2884 12.694 64.4984 12.1153 64.9184 11.686C65.3477 11.2473 65.9544 11.028 66.7384 11.028C67.0277 11.028 67.303 11.0653 67.5644 11.14C67.835 11.2053 68.0637 11.3127 68.2504 11.462L67.8444 12.484C67.7044 12.372 67.5457 12.288 67.3684 12.232C67.191 12.1667 67.0044 12.134 66.8084 12.134C66.4164 12.134 66.1177 12.246 65.9124 12.47C65.707 12.6847 65.6044 13.0067 65.6044 13.436V14.43L65.6324 15.046V21.5H64.2884ZM63.0284 15.186V14.08H67.7604V15.186H63.0284ZM73.4972 21.5V19.932L73.4272 19.638V16.964C73.4272 16.3947 73.2592 15.956 72.9232 15.648C72.5965 15.3307 72.1019 15.172 71.4392 15.172C71.0005 15.172 70.5712 15.2467 70.1512 15.396C69.7312 15.536 69.3765 15.7273 69.0872 15.97L68.5272 14.962C68.9099 14.654 69.3672 14.4207 69.8992 14.262C70.4405 14.094 71.0052 14.01 71.5932 14.01C72.6105 14.01 73.3945 14.2573 73.9452 14.752C74.4959 15.2467 74.7712 16.0027 74.7712 17.02V21.5H73.4972ZM71.0612 21.584C70.5105 21.584 70.0252 21.4907 69.6052 21.304C69.1945 21.1173 68.8772 20.8607 68.6532 20.534C68.4292 20.198 68.3172 19.82 68.3172 19.4C68.3172 18.9987 68.4105 18.6347 68.5972 18.308C68.7932 17.9813 69.1059 17.72 69.5352 17.524C69.9739 17.328 70.5619 17.23 71.2992 17.23H73.6512V18.196H71.3552C70.6832 18.196 70.2305 18.308 69.9972 18.532C69.7639 18.756 69.6472 19.0267 69.6472 19.344C69.6472 19.708 69.7919 20.002 70.0812 20.226C70.3705 20.4407 70.7719 20.548 71.2852 20.548C71.7892 20.548 72.2279 20.436 72.6012 20.212C72.9839 19.988 73.2592 19.6613 73.4272 19.232L73.6932 20.156C73.5159 20.5947 73.2032 20.9447 72.7552 21.206C72.3072 21.458 71.7425 21.584 71.0612 21.584ZM81.2204 14.01C81.827 14.01 82.359 14.1267 82.8164 14.36C83.283 14.5933 83.647 14.948 83.9084 15.424C84.1697 15.9 84.3004 16.502 84.3004 17.23V21.5H82.9564V17.384C82.9564 16.6653 82.779 16.124 82.4244 15.76C82.079 15.396 81.589 15.214 80.9544 15.214C80.4784 15.214 80.063 15.3073 79.7084 15.494C79.3537 15.6807 79.0784 15.956 78.8824 16.32C78.6957 16.684 78.6024 17.1367 78.6024 17.678V21.5H77.2584V14.08H78.5464V16.082L78.3364 15.55C78.579 15.0647 78.9524 14.6867 79.4564 14.416C79.9604 14.1453 80.5484 14.01 81.2204 14.01ZM90.8554 21.5V11.7H94.9854C96.0308 11.7 96.9501 11.9053 97.7434 12.316C98.5461 12.7267 99.1668 13.3007 99.6054 14.038C100.053 14.7753 100.277 15.6293 100.277 16.6C100.277 17.5707 100.053 18.4247 99.6054 19.162C99.1668 19.8993 98.5461 20.4733 97.7434 20.884C96.9501 21.2947 96.0308 21.5 94.9854 21.5H90.8554ZM92.2554 20.282H94.9014C95.7134 20.282 96.4134 20.128 97.0014 19.82C97.5988 19.512 98.0608 19.0827 98.3874 18.532C98.7141 17.972 98.8774 17.328 98.8774 16.6C98.8774 15.8627 98.7141 15.2187 98.3874 14.668C98.0608 14.1173 97.5988 13.688 97.0014 13.38C96.4134 13.072 95.7134 12.918 94.9014 12.918H92.2554V20.282ZM89.4134 17.062V15.956H95.0134V17.062H89.4134ZM105.345 21.584C104.711 21.584 104.151 21.4673 103.665 21.234C103.189 21.0007 102.816 20.646 102.545 20.17C102.284 19.6847 102.153 19.078 102.153 18.35V14.08H103.497V18.196C103.497 18.924 103.67 19.47 104.015 19.834C104.37 20.198 104.865 20.38 105.499 20.38C105.966 20.38 106.372 20.2867 106.717 20.1C107.063 19.904 107.329 19.624 107.515 19.26C107.702 18.8867 107.795 18.4387 107.795 17.916V14.08H109.139V21.5H107.865V19.498L108.075 20.03C107.833 20.5247 107.469 20.9073 106.983 21.178C106.498 21.4487 105.952 21.584 105.345 21.584ZM111.698 21.5V14.08H112.986V16.096L112.86 15.592C113.065 15.0787 113.41 14.6867 113.896 14.416C114.381 14.1453 114.978 14.01 115.688 14.01V15.312C115.632 15.3027 115.576 15.298 115.52 15.298C115.473 15.298 115.426 15.298 115.38 15.298C114.661 15.298 114.092 15.5127 113.672 15.942C113.252 16.3713 113.042 16.992 113.042 17.804V21.5H111.698ZM117.344 21.5V14.08H118.688V21.5H117.344ZM118.016 12.652C117.755 12.652 117.536 12.568 117.358 12.4C117.19 12.232 117.106 12.0267 117.106 11.784C117.106 11.532 117.19 11.322 117.358 11.154C117.536 10.986 117.755 10.902 118.016 10.902C118.278 10.902 118.492 10.986 118.66 11.154C118.838 11.3127 118.926 11.5133 118.926 11.756C118.926 12.008 118.842 12.2227 118.674 12.4C118.506 12.568 118.287 12.652 118.016 12.652ZM124.488 21.584C123.732 21.584 123.056 21.4207 122.458 21.094C121.87 20.7673 121.408 20.3193 121.072 19.75C120.736 19.1807 120.568 18.5273 120.568 17.79C120.568 17.0527 120.736 16.3993 121.072 15.83C121.408 15.2607 121.87 14.8173 122.458 14.5C123.056 14.1733 123.732 14.01 124.488 14.01C125.16 14.01 125.758 14.1453 126.28 14.416C126.812 14.6773 127.223 15.0693 127.512 15.592L126.49 16.25C126.248 15.886 125.949 15.62 125.594 15.452C125.249 15.2747 124.876 15.186 124.474 15.186C123.989 15.186 123.555 15.2933 123.172 15.508C122.79 15.7227 122.486 16.026 122.262 16.418C122.038 16.8007 121.926 17.258 121.926 17.79C121.926 18.322 122.038 18.784 122.262 19.176C122.486 19.568 122.79 19.8713 123.172 20.086C123.555 20.3007 123.989 20.408 124.474 20.408C124.876 20.408 125.249 20.324 125.594 20.156C125.949 19.9787 126.248 19.708 126.49 19.344L127.512 19.988C127.223 20.5013 126.812 20.898 126.28 21.178C125.758 21.4487 125.16 21.584 124.488 21.584ZM123.172 13.002L125.076 11.182H126.784L124.432 13.002H123.172Z" fill="#737373"/>
<path d="M141.647 18.8289L142 19.1813L142.353 18.8289L145.825 15.365L146.293 15.8333L142 20.1262L137.707 15.8333L138.175 15.365L141.647 18.8289Z" fill="#737373" stroke="#737373"/>
</svg>
